# xmcd
#
# Track frame offsets:
#	150
#	15871
#	32066
#	49960
#	67958
#	88489
#	105892
#	127950
#	151276
#	170647
#	189590
#	207903
#	224931
#	243375
#	260475
#
# Disc length: 3722 seconds
#
# Revision: 0
# Processed by: cddbd v1.5.2PL0 Copyright (c) Steve Scherf et al.
# Submitted via: audiograbber 1.83.01
#
DISCID=d30e880f
DTITLE=Carrie Underwood - Chartbuster Karaoke - Country Artist Series - Carrie 
DTITLE=Underwood - 90330
DYEAR=2008
DGENRE=Karaoke Country
TTITLE0=Carrie Underwood - Before He Cheats (A)
TTITLE1=Carrie Underwood - Flat On The Floor (A)
TTITLE2=Carrie Underwood - Jesus, Take The Wheel (A)
TTITLE3=Carrie Underwood - So Small (Eb)
TTITLE4=Carrie Underwood - I Told You So (Ab)
TTITLE5=Carrie Underwood - Crazy Dreams (Gb)
TTITLE6=Carrie Underwood - Wasted (Ab)
TTITLE7=Carrie Underwood - Just A Dream (G)
TTITLE8=Carrie Underwood - Last Name (Fm)
TTITLE9=Carrie Underwood - Don't Forget To Remember Me (D)
TTITLE10=Carrie Underwood - Some Hearts (D)
TTITLE11=Carrie Underwood - The More Boys I Meet (Bb)
TTITLE12=Carrie Underwood - We're Young and Beautiful (A)
TTITLE13=Carrie Underwood - All-American Girl (A)
TTITLE14=Carrie Underwood - Inside Your Heaven (G)
EXTD=
EXTT0=
EXTT1=
EXTT2=
EXTT3=
EXTT4=
EXTT5=
EXTT6=
EXTT7=
EXTT8=
EXTT9=
EXTT10=
EXTT11=
EXTT12=
EXTT13=
EXTT14=
PLAYORDER=
